<svg width="32" height="32" viewBox="0 0 32 32" fill="none" xmlns="http://www.w3.org/2000/svg">
<rect width="32" height="32" rx="16" fill="white"/>
<path d="M17.368 8C19.3525 8 20.8919 8.38667 21.9863 9.16C23.0807 9.92 23.6279 10.9867 23.6279 12.36C23.6279 13.1333 23.3944 13.7933 22.9275 14.34C22.4751 14.8867 21.8258 15.2733 20.9795 15.5V15.82C21.9425 16.0733 22.6867 16.5267 23.212 17.18C23.7373 17.82 24 18.6067 24 19.54C24 20.9533 23.4236 22.0533 22.2709 22.84C21.1181 23.6133 19.4911 24 17.3899 24H8V8H17.368ZM17.3899 21.58C18.5718 21.58 19.4692 21.3867 20.0821 21C20.6949 20.6133 21.0014 20.0533 21.0014 19.32C21.0014 18.5867 20.6949 18.0267 20.0821 17.64C19.4692 17.2533 18.5718 17.06 17.3899 17.06H11.0205V21.58H17.3899ZM17.3461 14.78C18.4697 14.78 19.3233 14.5933 19.907 14.22C20.4907 13.8467 20.7825 13.3067 20.7825 12.6C20.7825 11.8933 20.4907 11.3533 19.907 10.98C19.3233 10.6067 18.4697 10.42 17.3461 10.42H11.0205V14.78H17.3461Z" fill="#2F6DF6"/>
</svg>
